<svg xmlns="http://www.w3.org/2000/svg" fill="none" viewBox="0 0 47 29" height="29" width="47">
<path fill="black" d="M6.71889 24.2202C6.77378 24.2756 6.83904 24.3195 6.91093 24.3496C6.98281 24.3796 7.05991 24.3951 7.13778 24.3951H9.99L10.02 24.5857C10.2012 25.8036 10.8125 26.9157 11.7425 27.7196C12.6725 28.5235 13.8595 28.9657 15.0872 28.9657C16.315 28.9657 17.5019 28.5235 18.4319 27.7196C19.362 26.9157 19.9732 25.8036 20.1544 24.5857L20.1833 24.3951H33.6544L33.6833 24.5857C33.8645 25.8036 34.4758 26.9157 35.4058 27.7196C36.3358 28.5235 37.5228 28.9657 38.7505 28.9657C39.9783 28.9657 41.1653 28.5235 42.0953 27.7196C43.0253 26.9157 43.6366 25.8036 43.8178 24.5857L43.8467 24.3951H46.4022C46.56 24.3945 46.7111 24.3314 46.8227 24.2195C46.9343 24.1076 46.9972 23.956 46.9978 23.7978V15.0732C46.9973 14.9803 46.9752 14.8887 46.9333 14.8058L42.5367 6.0801C42.4874 5.98128 42.4115 5.89823 42.3177 5.84034C42.2238 5.78245 42.1157 5.75202 42.0056 5.75247H31.6933V0.592844C31.6938 0.514123 31.6787 0.436091 31.649 0.363235C31.6192 0.29038 31.5754 0.224137 31.5201 0.168317C31.4647 0.112497 31.3989 0.0681996 31.3265 0.037973C31.254 0.00774632 31.1763 -0.00781373 31.0978 -0.0078125L7.13889 -0.0078125C6.98267 0.000360361 6.834 0.0621297 6.71778 0.167147C6.66209 0.222499 6.61805 0.288503 6.58828 0.361246C6.5585 0.433988 6.5436 0.511986 6.54444 0.590615V6.32527H3.02889C2.86905 6.32507 2.71564 6.38838 2.60222 6.50134C2.49132 6.61597 2.42951 6.76955 2.43 6.92927C2.43173 7.08744 2.49514 7.23865 2.60667 7.35051C2.66241 7.40584 2.72851 7.44958 2.80116 7.47922C2.8738 7.50886 2.95157 7.52382 3.03 7.52324H6.54444V12.6561H0.598889C0.520399 12.6557 0.442597 12.6708 0.369956 12.7006C0.297314 12.7304 0.231267 12.7744 0.175611 12.8299C0.119955 12.8854 0.0757884 12.9514 0.0456507 13.0241C0.015513 13.0968 -1.22936e-06 13.1747 0 13.2534C0.00021249 13.4128 0.0628643 13.5657 0.174444 13.6791C0.227774 13.7378 0.293385 13.7839 0.366574 13.8142C0.439763 13.8444 0.518717 13.858 0.597778 13.8541H6.54444V23.8C6.54435 23.8783 6.55972 23.9558 6.58966 24.0281C6.6196 24.1004 6.66352 24.1661 6.71889 24.2213M38.7533 27.7684C37.7493 27.7748 36.7812 27.3936 36.0496 26.7039C35.318 26.0141 34.8789 25.0685 34.8233 24.063H34.7478L34.8211 23.78C34.8211 23.78 34.8211 23.7588 34.8211 23.7387C34.8284 22.6983 35.246 21.7031 35.9826 20.9704C36.7191 20.2377 37.7148 19.8271 38.7522 19.8283C39.7906 19.8458 40.7805 20.2717 41.5086 21.0144C42.2367 21.757 42.6448 22.7568 42.6448 23.7984C42.6448 24.8399 42.2367 25.8397 41.5086 26.5824C40.7805 27.325 39.7917 27.7509 38.7533 27.7684ZM31.6933 6.94376H41.64L45.81 15.2671V23.196H43.8433L43.8144 23.0055C43.6325 21.7886 43.0211 20.6777 42.0914 19.8748C41.1618 19.0718 39.9757 18.6302 38.7489 18.6302C37.522 18.6302 36.336 19.0718 35.4063 19.8748C34.4767 20.6777 33.8653 21.7886 33.6833 23.0055L33.6544 23.1971H31.6933V6.94376ZM15.0911 27.7673C14.307 27.7726 13.539 27.5442 12.8845 27.1111C12.2299 26.6781 11.7183 26.0598 11.4146 25.3348C11.1109 24.6097 11.0287 23.8106 11.1784 23.0386C11.3281 22.2666 11.7031 21.5566 12.2556 20.9987C12.8082 20.4407 13.5136 20.0599 14.2822 19.9045C15.0509 19.7491 15.8483 19.8261 16.5732 20.1259C17.2982 20.4256 17.918 20.9345 18.3542 21.588C18.7904 22.2415 19.0233 23.0102 19.0233 23.7967C19.0248 24.8456 18.6119 25.8523 17.8749 26.5965C17.1379 27.3407 16.1369 27.7617 15.0911 27.7673ZM30.5022 1.18904V23.1949H20.1822L20.1533 23.0044C19.9713 21.7875 19.3599 20.6766 18.4303 19.8736C17.5007 19.0707 16.3146 18.6291 15.0878 18.6291C13.8609 18.6291 12.6749 19.0707 11.7452 19.8736C10.8156 20.6766 10.2042 21.7875 10.0222 23.0044L9.99333 23.1949H7.73444V13.853H12.2522C12.4102 13.8489 12.5611 13.7862 12.6756 13.6769C12.787 13.5644 12.8494 13.4121 12.8489 13.2534C12.8478 13.0937 12.7849 12.9406 12.6733 12.8266C12.5604 12.7161 12.4089 12.6541 12.2511 12.6539H7.73444V7.52212H12.2522C12.3305 7.52271 12.4081 7.50775 12.4806 7.47811C12.5531 7.44847 12.6191 7.40473 12.6746 7.34941C12.7302 7.2941 12.7743 7.22829 12.8044 7.1558C12.8345 7.08331 12.85 7.00556 12.85 6.92704C12.8507 6.84794 12.8358 6.76949 12.8061 6.69623C12.7763 6.62297 12.7324 6.55636 12.6768 6.50028C12.6211 6.44419 12.555 6.39974 12.4821 6.36951C12.4092 6.33927 12.3311 6.32386 12.2522 6.32416H7.73444V1.19016L30.5022 1.18904Z"></path>
</svg>
