<svg xmlns="http://www.w3.org/2000/svg" fill="none" viewBox="0 0 42 29" height="29" width="42">
<mask height="30" width="42" y="-1" x="0" maskUnits="userSpaceOnUse" style="mask-type:luminance" id="mask0_58657_6725">
<path fill="white" d="M42 -0.0078125H0V28.9657H42V-0.0078125Z"></path>
</mask>
<g mask="url(#mask0_58657_6725)">
<path fill="black" d="M32.0483 16.4367C31.1972 16.4367 30.3686 16.7004 29.6841 17.1889L29.5779 17.2646L29.4706 17.1889C28.7874 16.7012 27.9605 16.4376 27.111 16.4367C26.0429 16.4411 25.0202 16.854 24.2666 17.5849C23.5129 18.3159 23.0898 19.3054 23.0898 20.337C23.092 21.3722 23.5161 22.3649 24.2702 23.1006C25.0233 23.8302 26.0454 24.2414 27.1122 24.2439C27.9617 24.243 28.7886 23.9794 29.4718 23.4917L29.5791 23.4159L29.6852 23.4917C30.4572 24.041 31.408 24.3037 32.3639 24.2317C33.3198 24.1596 34.217 23.7577 34.8914 23.0995C35.6455 22.3654 36.0686 21.3732 36.0686 20.3392C36.0686 19.3051 35.6455 18.313 34.8914 17.5789C34.5199 17.2157 34.0773 16.9276 33.5894 16.7313C33.1015 16.535 32.578 16.4345 32.0495 16.4356M28.641 22.7418C28.0841 23.0778 27.4255 23.221 26.7732 23.1479C26.1209 23.0748 25.5138 22.7898 25.0514 22.3395C24.5392 21.853 24.2308 21.2011 24.1853 20.5086C24.1398 19.8162 24.3603 19.1319 24.8048 18.5867C25.2492 18.0416 25.8862 17.6739 26.5938 17.5542C27.3015 17.4344 28.03 17.571 28.6398 17.9377L28.8014 18.0347L28.6975 18.1873C28.5981 18.3354 28.5094 18.4899 28.4322 18.6498L28.2337 18.6398L28.3998 18.7144C28.2481 19.0361 28.1421 19.3761 28.0848 19.7252L28.0722 19.8054C28.015 20.1595 28.015 20.52 28.0722 20.8741L28.0837 20.9499C28.1416 21.3017 28.2488 21.6444 28.4022 21.9684L28.4298 22.0263C28.508 22.1871 28.5979 22.3424 28.6987 22.491L28.8037 22.6448L28.641 22.7418ZM34.1079 22.3395C33.8392 22.6007 33.5198 22.8081 33.168 22.9501C32.8162 23.092 32.4389 23.1656 32.0576 23.1666C31.6764 23.1677 31.2986 23.0961 30.946 22.9561C30.5934 22.8161 30.2728 22.6103 30.0025 22.3506C29.4514 21.8185 29.1407 21.0974 29.1383 20.3448C29.1359 19.6279 29.417 18.9371 29.9241 18.4136L29.9795 18.3578C30.2482 18.0925 30.5688 17.8814 30.9227 17.7369C31.2767 17.5923 31.6568 17.5172 32.0411 17.5158C32.4254 17.5145 32.8061 17.5869 33.1612 17.729C33.5162 17.8711 33.8384 18.0799 34.1091 18.3434C34.6551 18.8753 34.9614 19.594 34.9614 20.3431C34.9614 21.0921 34.6551 21.8108 34.1091 22.3428"></path>
<path fill="black" d="M16.8242 18.6009H16.8381C16.9113 18.6019 16.9839 18.5889 17.0519 18.5627C17.1199 18.5365 17.1819 18.4976 17.2343 18.4482C17.2868 18.3989 17.3287 18.34 17.3576 18.275C17.3865 18.21 17.4019 18.1402 17.4029 18.0694C17.4039 17.9987 17.3904 17.9284 17.3633 17.8627C17.3362 17.797 17.296 17.7371 17.2449 17.6864C17.1939 17.6357 17.133 17.5952 17.0658 17.5672C16.9985 17.5393 16.9262 17.5244 16.8531 17.5234H6.49037C6.34749 17.5229 6.2102 17.5771 6.10845 17.674C6.05554 17.7225 6.01319 17.7808 5.98387 17.8453C5.95454 17.9099 5.93884 17.9794 5.93768 18.0499C5.93396 18.1923 5.98886 18.3303 6.09032 18.4336C6.19179 18.5369 6.33152 18.5971 6.47883 18.6009H16.8242Z"></path>
<path fill="black" d="M10.4967 21.3976H6.44205C6.29957 21.41 6.16745 21.4747 6.07292 21.5785C5.97838 21.6823 5.92865 21.8172 5.93398 21.9554C5.93931 22.0936 5.99929 22.2245 6.10155 22.3212C6.20381 22.4179 6.34056 22.473 6.48359 22.4751H10.4632C10.6127 22.476 10.7569 22.4222 10.867 22.3245C10.9461 22.2508 11.0008 22.1562 11.0245 22.0525C11.0482 21.9489 11.0398 21.8408 11.0002 21.7417C10.9607 21.6427 10.8919 21.5571 10.8023 21.4957C10.7127 21.4343 10.6064 21.4009 10.4967 21.3976Z"></path>
<path fill="black" d="M41.4485 -0.00665716H0.551547C0.532735 -0.00819761 0.513821 -0.00819761 0.495009 -0.00665716C0.358543 0.00742378 0.232351 0.0699371 0.140895 0.168765C0.0494383 0.267592 -0.000767755 0.395694 8.87729e-06 0.528239V28.432C0.000913279 28.5734 0.0593973 28.7088 0.162819 28.8089C0.266241 28.9089 0.406293 28.9657 0.552701 28.9669H41.4496C41.5957 28.9654 41.7354 28.9085 41.8383 28.8084C41.9413 28.7083 41.9994 28.5731 42 28.432V0.528239C41.9997 0.38685 41.9416 0.251304 41.8383 0.151118C41.735 0.0509329 41.5949 -0.00577562 41.4485 -0.00665716ZM40.8923 27.8904H1.10886V11.6563H40.8923V27.8904ZM40.8923 10.5787H1.10886V7.4596H40.8923V10.5787ZM40.8923 6.37866H1.10886V1.06982H40.8923V6.37866Z"></path>
</g>
</svg>
