<svg xmlns="http://www.w3.org/2000/svg" fill="none" viewBox="0 0 31 32" height="32" width="31">
<path fill="#010101" d="M30.9927 16.4783C30.9927 12.605 29.5515 8.84248 26.8908 5.96522L26.6137 5.68856C23.6758 2.70064 19.7402 0.985352 15.4166 0.985352C11.2593 0.985352 7.32371 2.70064 4.38587 5.68856L4.10872 5.96522C1.44804 8.84248 0.00683594 12.5497 0.00683594 16.4783C0.00683594 24.9994 6.9357 31.9159 15.4166 31.9712C24.0638 31.9712 30.9927 24.9994 30.9927 16.4783ZM12.8668 1.92598C11.4256 3.25395 9.81811 6.07588 9.04208 8.95314C7.60087 8.23382 6.0488 7.12718 4.94018 6.07587C6.93569 4.08393 10.1507 2.4793 12.8668 1.92598ZM4.44131 6.62919C5.66078 7.79116 7.26828 8.95313 8.87577 9.72778C8.48776 11.6091 8.21061 13.933 8.15518 16.0909H0.672013C0.782875 12.7157 2.16864 9.17446 4.38587 6.62919H4.44131ZM4.44131 26.1614C2.2795 23.6714 0.838309 20.1855 0.727447 16.8656H8.21061C8.21061 18.9682 8.48776 21.2921 8.87577 23.1181C7.37914 23.7821 5.71622 24.9994 4.44131 26.1614ZM4.94018 26.77C6.0488 25.7187 7.65631 24.5567 9.04208 23.8927C9.76268 26.7147 10.8159 28.8726 12.7005 30.9199C9.59637 30.2559 6.88026 28.7066 4.94018 26.77ZM15.084 31.0859C12.9777 30.6432 10.8713 27.7106 9.81811 23.5054C11.2039 22.9521 13.3657 22.5094 15.084 22.4541V31.0859ZM15.084 21.6795C13.3103 21.7901 11.0376 22.2328 9.6518 22.7861C9.26379 21.0155 9.04207 18.8022 8.98664 16.8656H15.084V21.6795ZM15.084 16.0909H8.98664C8.98664 14.099 9.26379 11.8304 9.6518 10.0598C11.3147 10.6684 13.3657 11.1111 15.084 11.2217V16.0909ZM15.084 10.4471C13.4211 10.3364 11.4256 9.94911 9.81811 9.28513C10.8713 5.13524 12.9777 2.20265 15.084 1.75999V10.4471ZM26.5028 26.2167C25.2833 24.9994 23.565 23.8374 22.0683 23.1734C22.4563 21.2922 22.7335 19.0235 22.7335 16.9209H30.2167C30.1058 20.2408 28.6646 23.6714 26.5028 26.2167ZM30.2167 16.0909H22.7335C22.7335 13.933 22.4563 11.6091 22.0129 9.72778C23.6204 8.95313 25.2833 7.84649 26.4474 6.62919C28.6646 9.17446 30.0504 12.7157 30.1612 16.0909H30.2167ZM26.0039 6.07587C24.8953 7.12718 23.3432 8.23382 21.902 8.95314C21.126 6.07588 19.5185 3.25395 18.0773 1.92598C20.7934 2.53463 24.0084 4.13926 26.0039 6.07587ZM15.8601 1.70466C17.911 2.14731 20.0174 5.07991 21.126 9.2298C19.5185 9.89378 17.5784 10.2811 15.8601 10.3918V1.70466ZM15.8601 11.2217C17.5784 11.1111 19.6848 10.7238 21.2923 10.0598C21.6803 11.8857 21.902 14.1543 21.9575 16.0909H15.8601V11.2217ZM15.8601 16.8656H21.9575C21.9575 18.8022 21.6803 21.0155 21.2923 22.7861C19.9065 22.2328 17.5784 21.7901 15.8601 21.6795V16.8656ZM15.8601 31.0859V22.4541C17.5784 22.5094 19.7402 22.9521 21.126 23.5054C20.0728 27.7106 17.9664 30.6432 15.8601 31.0859ZM18.2436 30.8646C20.1837 28.8173 21.1814 26.6593 21.902 23.8374C23.2324 24.5014 24.8953 25.6634 26.0039 26.7147C24.0638 28.6513 21.3477 30.2006 18.2436 30.8646Z" clip-rule="evenodd" fill-rule="evenodd"></path>
</svg>
