<svg xmlns="http://www.w3.org/2000/svg" fill="none" viewBox="0 0 42 29" height="29" width="42">
<path fill="black" d="M31.0322 21.084C34.9472 21.084 38.5744 19.0859 40.5319 15.8111C42.4894 12.5363 42.4894 8.48443 40.5319 5.26515C38.5744 1.99036 34.9472 -0.0078125 31.0322 -0.0078125H14.3358V0.82476H31.0322C34.6018 0.82476 37.9411 2.71192 39.7834 5.65368C41.5682 8.65094 41.5682 12.3698 39.7834 15.367C37.9986 18.3643 34.6594 20.196 31.0322 20.196H1.55449L8.98149 13.0358C9.09664 12.9248 9.09664 12.8138 9.09664 12.7583C9.09664 12.7028 9.09664 12.5918 8.98149 12.4808C8.86635 12.3698 8.7512 12.3698 8.69363 12.3698C8.63605 12.3698 8.52091 12.3698 8.40576 12.4808L0 20.5845L8.57848 28.8547C8.69363 28.9657 8.80877 28.9657 8.86635 28.9657C8.92392 28.9657 9.03907 28.9657 9.15421 28.8547C9.32694 28.6882 9.32694 28.4107 9.15421 28.2442L1.72721 21.084H31.0322Z"></path>
</svg>
